<svg width="99" height="17" viewBox="0 0 99 17" fill="none" xmlns="http://www.w3.org/2000/svg">
<path d="M12.8702 10.72C12.3422 12.37 10.8902 14.02 8.36024 14.02C5.47824 14.02 3.30023 11.82 3.30023 8.3C3.30023 4.78 5.47824 2.58 8.36024 2.58C10.3182 2.58 12.1002 3.68 12.8702 5.77H15.2902C14.6522 3.02 12.2102 0.379999 8.36024 0.379999C4.31223 0.379999 0.990234 3.57 0.990234 8.3C0.990234 13.03 4.31223 16.22 8.36024 16.22C12.5182 16.22 14.7622 13.14 15.2902 10.72H12.8702Z" fill="#1F2020"/>
<path d="M24.4305 16.22C28.4785 16.22 31.8005 13.03 31.8005 8.3C31.8005 3.57 28.4785 0.379999 24.4305 0.379999C20.3825 0.379999 17.0605 3.57 17.0605 8.3C17.0605 13.03 20.3825 16.22 24.4305 16.22ZM24.4305 2.58C27.3125 2.58 29.4905 4.78 29.4905 8.3C29.4905 11.82 27.3125 14.02 24.4305 14.02C21.5485 14.02 19.3705 11.82 19.3705 8.3C19.3705 4.78 21.5485 2.58 24.4305 2.58Z" fill="#1F2020"/>
<path d="M34.4354 16H44.2254V13.8H36.7454V0.599999H34.4354V16Z" fill="#1F2020"/>
<path d="M52.1454 16.22C56.1934 16.22 59.5154 13.03 59.5154 8.3C59.5154 3.57 56.1934 0.379999 52.1454 0.379999C48.0974 0.379999 44.7754 3.57 44.7754 8.3C44.7754 13.03 48.0974 16.22 52.1454 16.22ZM52.1454 2.58C55.0274 2.58 57.2054 4.78 57.2054 8.3C57.2054 11.82 55.0274 14.02 52.1454 14.02C49.2634 14.02 47.0854 11.82 47.0854 8.3C47.0854 4.78 49.2634 2.58 52.1454 2.58Z" fill="#1F2020"/>
<path d="M62.1502 16H64.4602V10.5H65.5602L71.0602 16H74.0302L68.5302 10.5H69.0802C71.6102 10.5 73.5902 8.542 73.5902 5.55C73.5902 2.558 71.6102 0.599999 69.0802 0.599999H62.1502V16ZM64.4602 8.3V2.8H68.9702C70.2022 2.8 71.2802 3.9 71.2802 5.55C71.2802 7.2 70.2022 8.3 68.9702 8.3H64.4602Z" fill="#1F2020"/>
<path d="M75.6888 11.27C75.6888 14.02 77.8888 16.22 81.7388 16.22C85.5888 16.22 87.5688 14.24 87.5688 11.71C87.5688 9.268 86.1608 7.97 83.0588 7.42L80.6388 6.98C78.9668 6.65 78.3288 5.88 78.3288 4.89C78.3288 3.658 79.4288 2.58 81.5188 2.58C83.7188 2.58 85.0388 3.9 85.0388 5.33H87.3488C87.3488 2.58 85.3688 0.379999 81.5188 0.379999C78.1088 0.379999 76.0188 2.36 76.0188 4.89C76.0188 7.002 77.2068 8.52 79.6488 8.96L82.6188 9.51C84.3788 9.84 85.2588 10.588 85.2588 11.71C85.2588 13.03 84.2688 14.02 81.7388 14.02C79.4508 14.02 77.9988 12.7 77.9988 11.27H75.6888Z" fill="#1F2020"/>
<path d="M99.0002 4C99.0002 6.20914 97.2094 8 95.0002 8C92.7911 8 91.0002 6.20914 91.0002 4C91.0002 1.79086 92.7911 0 95.0002 0C97.2094 0 99.0002 1.79086 99.0002 4Z" fill="#1F2020"/>
</svg>
