<svg xmlns="http://www.w3.org/2000/svg" xmlns:xlink="http://www.w3.org/1999/xlink">
  <defs>
    <clipPath id="clip0_8_30">
      <rect width="22" height="22" fill="white" />
    </clipPath>
  </defs>
  <symbol id="icon-add" viewBox="0 0 20 20">
    <g fill="none">
      <path d="M10 4.16663V15.8333" stroke="#1F2020" stroke-width="2" stroke-linecap="round" stroke-linejoin="round" />
      <path d="M4.16699 10H15.8337" stroke="#1F2020" stroke-width="2" stroke-linecap="round" stroke-linejoin="round" />
    </g>
  </symbol>
  <symbol id="icon-cart" viewBox="0 0 18 18">
    <g fill="none">
      <path d="M6 1.5C5.05573 1.5 4.16656 1.94458 3.6 2.7L2.85 3.7C2.46053 4.21929 2.25 4.85089 2.25 5.5V15C2.25 15.3978 2.40804 15.7794 2.68934 16.0607C2.97064 16.342 3.35218 16.5 3.75 16.5H14.25C14.6478 16.5 15.0294 16.342 15.3107 16.0607C15.592 15.7794 15.75 15.3978 15.75 15V5.5C15.75 4.85089 15.5395 4.21929 15.15 3.7L14.4 2.7C13.8334 1.94458 12.9443 1.5 12 1.5H6Z" fill="currentColor" />
      <path fill-rule="evenodd" clip-rule="evenodd" d="M1.5 4.5C1.5 4.08579 1.83579 3.75 2.25 3.75H15.75C16.1642 3.75 16.5 4.08579 16.5 4.5C16.5 4.91421 16.1642 5.25 15.75 5.25H2.25C1.83579 5.25 1.5 4.91421 1.5 4.5Z" fill="white" />
      <path fill-rule="evenodd" clip-rule="evenodd" d="M6 6.75C6.41421 6.75 6.75 7.08579 6.75 7.5C6.75 8.09674 6.98705 8.66903 7.40901 9.09099C7.83097 9.51295 8.40326 9.75 9 9.75C9.59674 9.75 10.169 9.51295 10.591 9.09099C11.0129 8.66903 11.25 8.09674 11.25 7.5C11.25 7.08579 11.5858 6.75 12 6.75C12.4142 6.75 12.75 7.08579 12.75 7.5C12.75 8.49456 12.3549 9.44839 11.6517 10.1517C10.9484 10.8549 9.99456 11.25 9 11.25C8.00544 11.25 7.05161 10.8549 6.34835 10.1517C5.64509 9.44839 5.25 8.49456 5.25 7.5C5.25 7.08579 5.58579 6.75 6 6.75Z" fill="white" />
    </g>
  </symbol>
  <symbol id="icon-close-big" viewBox="0 0 48 48">
    <g fill="none">
      <path d="M30 18L18 30" stroke="#1F2020" stroke-width="1.4" stroke-linecap="round" stroke-linejoin="round" />
      <path d="M18 18L30 30" stroke="#1F2020" stroke-width="1.4" stroke-linecap="round" stroke-linejoin="round" />
      <circle opacity="0.1" cx="24" cy="24" r="23.5" stroke="black" />
    </g>
  </symbol>
  <symbol id="icon-close-small" viewBox="0 0 16 16">
    <g fill="none">
      <path d="M12.5341 12.534L4 3.99988" stroke="currentColor" stroke-width="2" stroke-linecap="round" stroke-linejoin="round" />
      <path d="M4.00293 12.534L12.537 3.99988" stroke="currentColor" stroke-width="2" stroke-linecap="round" stroke-linejoin="round" />
    </g>
  </symbol>
  <symbol id="icon-drop-arrow" viewBox="0 0 8 5">
    <g fill="none">
      <path d="M4.00023 5L7.46434 0.5L0.536133 0.5L4.00023 5Z" fill="#202020" />
    </g>
  </symbol>
  <symbol id="icon-heart" viewBox="0 0 22 22">
    <g fill="none">
      <path d="M11.0009 19C10.745 19.0001 10.4978 18.9074 10.3052 18.739C9.57966 18.1047 8.87674 17.5067 8.25817 16.9802C6.65691 15.7048 5.16127 14.3023 3.78581 12.7865C2.67695 11.5918 2.0423 10.0341 2.00085 8.4053C1.97621 6.99164 2.48598 5.62067 3.42845 4.56595C3.88583 4.0681 4.44256 3.67154 5.06275 3.40184C5.68294 3.13214 6.35283 2.9953 7.0292 3.00012C8.05552 2.99541 9.053 3.3392 9.8581 3.97514C10.2942 4.31625 10.6791 4.71815 11.0009 5.16854C11.3231 4.71841 11.7082 4.31682 12.1446 3.97605C12.9489 3.34036 13.9453 2.99628 14.9708 3.00012C15.6472 2.9953 16.3171 3.13214 16.9372 3.40184C17.5574 3.67154 18.1142 4.0681 18.5715 4.56595C19.514 5.62067 20.0238 6.99164 19.9991 8.4053C19.9585 10.0337 19.3249 11.5915 18.2169 12.7865C16.8425 14.3013 15.3481 15.7028 13.7482 16.9775C13.1287 17.5049 12.4267 18.1029 11.6975 18.7399C11.5045 18.9081 11.257 19.0005 11.0009 19V19Z" stroke="black" stroke-width="1.2" />
    </g>
  </symbol>
  <symbol id="icon-minus" viewBox="0 0 16 16">
    <g fill="none">
      <path d="M3.3335 8H12.6668" stroke="black" stroke-width="1.4" stroke-linecap="round" stroke-linejoin="round" />
    </g>
  </symbol>
  <symbol id="icon-repeat" viewBox="0 0 24 24">
    <g fill="none">
      <path d="M17 1L21 5L17 9" stroke="black" stroke-width="1.4" stroke-linecap="round" stroke-linejoin="round" />
      <path d="M3 11V9C3 7.93913 3.42143 6.92172 4.17157 6.17157C4.92172 5.42143 5.93913 5 7 5H21" stroke="black" stroke-width="1.4" stroke-linecap="round" stroke-linejoin="round" />
      <path d="M7 23L3 19L7 15" stroke="black" stroke-width="1.4" stroke-linecap="round" stroke-linejoin="round" />
      <path d="M21 13V15C21 16.0609 20.5786 17.0783 19.8284 17.8284C19.0783 18.5786 18.0609 19 17 19H3" stroke="black" stroke-width="1.4" stroke-linecap="round" stroke-linejoin="round" />
    </g>
  </symbol>
  <symbol id="icon-right" viewBox="0 0 80 80">
    <g fill="none">
      <path d="M30 60L50 40L30 20" stroke="currentColor" stroke-width="2" stroke-linecap="round" stroke-linejoin="round" />
    </g>
  </symbol>
  <symbol id="icon-search" viewBox="0 0 20 20">
    <g fill="none">
      <path d="M9.16667 15.8333C12.8486 15.8333 15.8333 12.8486 15.8333 9.16667C15.8333 5.48477 12.8486 2.5 9.16667 2.5C5.48477 2.5 2.5 5.48477 2.5 9.16667C2.5 12.8486 5.48477 15.8333 9.16667 15.8333Z" stroke="#1F2020" stroke-width="1.4" stroke-linecap="round" stroke-linejoin="round" />
      <path d="M17.5 17.5L13.875 13.875" stroke="#1F2020" stroke-width="1.4" stroke-linecap="round" stroke-linejoin="round" />
    </g>
  </symbol>
  <symbol id="icon-user" viewBox="0 0 22 22">
    <g fill="none">
      <g clip-path="url(#clip0_8_30)">
        <circle cx="11" cy="23" r="8.4" stroke="black" stroke-width="1.2" />
        <circle cx="11" cy="7" r="3.4" stroke="black" stroke-width="1.2" />
      </g>

    </g>
  </symbol>
  <symbol id="icon-x" viewBox="0 0 24 24">
    <g fill="none">
      <path d="M18 6L6 18" stroke="currentColor" stroke-width="1.4" stroke-linecap="round" stroke-linejoin="round" />
      <path d="M6 6L18 18" stroke="currentColor" stroke-width="1.4" stroke-linecap="round" stroke-linejoin="round" />
    </g>
  </symbol>
</svg>